@startuml

[First component]
[Another component] as Comp2
component Comp3
component [Last\ncomponent] as Comp4

newpage

() "First Interface"
() "Another interface" as Interf2
interface Interf3
interface "Last\ninterface" as Interf4

newpage

DataAccess - [First Component]
[First Component] ..> HTTP : use

newpage

package "Some Group" {
HTTP - [First Component]
[Another Component]
}
node "Other Groups" {
FTP - [Second Component]
[First Component] --> FTP
}
cloud {
[Example 1]
}
database "MySql" {
folder "This is my folder" {
[Folder 3]
}
frame "Foo" {
[Frame 4]
}
}
[Another Component] --> [Example 1]
[Example 1] --> [Folder 3]
[Folder 3] --> [Frame 4]

[Component] --> Interface1
[Component] -> Interface2


@enduml